<svg width="319" height="31" viewBox="0 0 319 31" fill="none" xmlns="http://www.w3.org/2000/svg">
<path d="M0.0800004 30V2H21.28V6.16H4.4V25.84H21.28V30H0.0800004ZM2.28 17.72V13.56H19.08V17.72H2.28ZM32.9009 30V0.4H37.0209V30H32.9009ZM59.8225 30.4C57.2892 30.4 55.0225 29.9467 53.0225 29.04C51.0492 28.1067 49.5025 26.84 48.3825 25.24C47.2625 23.6133 46.7025 21.7733 46.7025 19.72C46.7025 17.9867 47.0358 16.44 47.7025 15.08C48.3692 13.72 49.2758 12.56 50.4225 11.6C51.5958 10.6133 52.9558 9.85333 54.5025 9.32C56.0758 8.78667 57.7292 8.52 59.4625 8.52C61.0892 8.52 62.6092 8.77333 64.0225 9.28C65.4358 9.78667 66.6758 10.4933 67.7425 11.4C68.8092 12.3067 69.6358 13.3867 70.2225 14.64C70.8092 15.8667 71.0892 17.2267 71.0625 18.72L71.0225 20.72H50.2625L49.3425 17.44H67.4625L66.8625 17.88V16.92C66.7292 16.0133 66.3025 15.2133 65.5825 14.52C64.8625 13.8267 63.9692 13.2933 62.9025 12.92C61.8358 12.52 60.6892 12.32 59.4625 12.32C57.7825 12.32 56.2892 12.5733 54.9825 13.08C53.6758 13.56 52.6492 14.32 51.9025 15.36C51.1558 16.4 50.7825 17.76 50.7825 19.44C50.7825 20.88 51.1958 22.1467 52.0225 23.24C52.8492 24.3067 53.9825 25.1333 55.4225 25.72C56.8892 26.3067 58.5825 26.6 60.5025 26.6C62.2625 26.6 63.7558 26.36 64.9825 25.88C66.2092 25.3733 67.2892 24.8 68.2225 24.16L70.1025 27.2C69.3558 27.7867 68.4225 28.32 67.3025 28.8C66.2092 29.28 65.0225 29.6667 63.7425 29.96C62.4625 30.2533 61.1558 30.4 59.8225 30.4ZM88.2575 30L77.4175 9H82.1375L90.5775 26.04L89.5775 26.4L98.4575 9H102.938L91.7375 30H88.2575ZM119.82 30.4C117.58 30.4 115.594 29.9333 113.86 29C112.154 28.04 110.82 26.7333 109.86 25.08C108.9 23.4267 108.42 21.56 108.42 19.48C108.42 17.3467 108.927 15.4667 109.94 13.84C110.954 12.1867 112.34 10.8933 114.1 9.96C115.86 9.02667 117.86 8.56 120.1 8.56C121.487 8.56 122.767 8.73333 123.94 9.08C125.14 9.42667 126.167 9.89333 127.02 10.48C127.9 11.0667 128.594 11.7067 129.1 12.4C129.607 13.0933 129.887 13.8 129.94 14.52L128.82 14.44V9H132.98V30H128.82V24.48L129.7 24.6C129.647 25.24 129.34 25.9067 128.78 26.6C128.22 27.2667 127.487 27.8933 126.58 28.48C125.674 29.04 124.634 29.5067 123.46 29.88C122.314 30.2267 121.1 30.4 119.82 30.4ZM120.82 26.6C122.42 26.6 123.834 26.2933 125.06 25.68C126.287 25.04 127.247 24.1867 127.94 23.12C128.634 22.0267 128.98 20.8133 128.98 19.48C128.98 18.12 128.634 16.9067 127.94 15.84C127.247 14.7733 126.287 13.9333 125.06 13.32C123.834 12.7067 122.42 12.4 120.82 12.4C119.22 12.4 117.807 12.7067 116.58 13.32C115.354 13.9333 114.38 14.7733 113.66 15.84C112.967 16.9067 112.62 18.12 112.62 19.48C112.62 20.8133 112.967 22.0267 113.66 23.12C114.38 24.1867 115.354 25.04 116.58 25.68C117.807 26.2933 119.22 26.6 120.82 26.6Z" fill="white"/>
<path d="M168.122 30L158.322 2H163.002L168.722 18.84C168.935 19.3733 169.135 19.96 169.322 20.6C169.508 21.2133 169.682 21.8533 169.842 22.52C170.028 23.16 170.188 23.7733 170.322 24.36C170.482 24.92 170.628 25.4267 170.762 25.88L169.202 25.84C169.522 24.88 169.828 23.9867 170.122 23.16C170.415 22.3333 170.708 21.56 171.002 20.84C171.295 20.12 171.575 19.44 171.842 18.8L176.962 6.84H181.002L185.962 18.76C186.282 19.48 186.588 20.24 186.882 21.04C187.202 21.8133 187.495 22.5733 187.762 23.32C188.028 24.0667 188.242 24.7867 188.402 25.48L187.002 25.76C187.135 25.2267 187.255 24.7333 187.362 24.28C187.495 23.8 187.615 23.3467 187.722 22.92C187.855 22.4667 187.988 22.0133 188.122 21.56C188.282 21.1067 188.442 20.64 188.602 20.16C188.762 19.68 188.948 19.16 189.162 18.6L195.282 2H199.922L189.322 30H186.322L178.482 11.64L179.082 11.8L171.282 30H168.122ZM216.578 30.4C214.338 30.4 212.351 29.9333 210.618 29C208.911 28.04 207.578 26.7333 206.618 25.08C205.658 23.4267 205.178 21.56 205.178 19.48C205.178 17.3467 205.685 15.4667 206.698 13.84C207.711 12.1867 209.098 10.8933 210.858 9.96C212.618 9.02667 214.618 8.56 216.858 8.56C218.245 8.56 219.525 8.73333 220.698 9.08C221.898 9.42667 222.925 9.89333 223.778 10.48C224.658 11.0667 225.351 11.7067 225.858 12.4C226.365 13.0933 226.645 13.8 226.698 14.52L225.578 14.44V9H229.738V30H225.578V24.48L226.458 24.6C226.405 25.24 226.098 25.9067 225.538 26.6C224.978 27.2667 224.245 27.8933 223.338 28.48C222.431 29.04 221.391 29.5067 220.218 29.88C219.071 30.2267 217.858 30.4 216.578 30.4ZM217.578 26.6C219.178 26.6 220.591 26.2933 221.818 25.68C223.045 25.04 224.005 24.1867 224.698 23.12C225.391 22.0267 225.738 20.8133 225.738 19.48C225.738 18.12 225.391 16.9067 224.698 15.84C224.005 14.7733 223.045 13.9333 221.818 13.32C220.591 12.7067 219.178 12.4 217.578 12.4C215.978 12.4 214.565 12.7067 213.338 13.32C212.111 13.9333 211.138 14.7733 210.418 15.84C209.725 16.9067 209.378 18.12 209.378 19.48C209.378 20.8133 209.725 22.0267 210.418 23.12C211.138 24.1867 212.111 25.04 213.338 25.68C214.565 26.2933 215.978 26.6 217.578 26.6ZM245.394 30V2.88H249.514V30H245.394ZM239.514 13V9H256.474V13H239.514ZM276.325 30.4C274.059 30.4 272.019 29.92 270.205 28.96C268.419 28 266.992 26.6933 265.925 25.04C264.885 23.3867 264.365 21.5333 264.365 19.48C264.365 17.4 264.885 15.5467 265.925 13.92C266.992 12.2667 268.419 10.96 270.205 10C272.019 9.04 274.059 8.56 276.325 8.56C278.565 8.56 280.632 8.93333 282.525 9.68C284.445 10.4 285.939 11.4 287.005 12.68L284.685 15.84C284.072 15.1733 283.299 14.5733 282.365 14.04C281.459 13.5067 280.499 13.08 279.485 12.76C278.472 12.44 277.472 12.28 276.485 12.28C274.939 12.28 273.565 12.6 272.365 13.24C271.165 13.8533 270.219 14.7067 269.525 15.8C268.859 16.8667 268.525 18.0933 268.525 19.48C268.525 20.8667 268.885 22.1067 269.605 23.2C270.325 24.2667 271.285 25.12 272.485 25.76C273.712 26.3733 275.059 26.68 276.525 26.68C277.699 26.68 278.779 26.5467 279.765 26.28C280.752 25.9867 281.659 25.6133 282.485 25.16C283.312 24.68 284.059 24.1733 284.725 23.64L287.005 26.72C285.725 27.7333 284.179 28.6 282.365 29.32C280.579 30.04 278.565 30.4 276.325 30.4ZM297.36 30V0.4H301.48V14.36L300.24 14.56C300.56 13.5733 301.186 12.6267 302.12 11.72C303.053 10.8133 304.2 10.0667 305.56 9.48C306.92 8.86667 308.36 8.56 309.88 8.56C311.826 8.56 313.44 8.93333 314.72 9.68C316.026 10.4267 317 11.4667 317.64 12.8C318.306 14.1333 318.64 15.68 318.64 17.44V30H314.52V18C314.52 16.8 314.253 15.7733 313.72 14.92C313.213 14.0667 312.506 13.4133 311.6 12.96C310.72 12.5067 309.693 12.28 308.52 12.28C307.506 12.28 306.56 12.4667 305.68 12.84C304.826 13.2133 304.08 13.6933 303.44 14.28C302.826 14.8667 302.346 15.52 302 16.24C301.653 16.9333 301.48 17.6267 301.48 18.32V30H299.44C298.853 30 298.386 30 298.04 30C297.693 30 297.466 30 297.36 30Z" fill="#FFC300"/>
</svg>
